<svg width="86" height="44" viewBox="0 0 86 44" fill="none" xmlns="http://www.w3.org/2000/svg">
<g clip-path="url(#clip0_214_1185)">
<path d="M30.9692 5.2132C30.6202 4.85684 30.294 4.47599 29.916 4.15155C29.5434 3.83083 29.1191 3.56653 28.7473 3.18642C29.3488 3.35643 29.9533 3.51902 30.5517 3.69868C31.8239 4.0788 32.9515 4.72395 34.0039 5.50274C36.4623 7.32239 39.2545 8.35137 42.2923 8.77157C44.8221 9.12199 47.3383 8.9453 49.8347 8.47015C50.4468 8.3536 51.0019 8.09375 51.36 7.54437C51.5706 7.22142 51.5684 6.91926 51.3159 6.6312C50.9342 6.19541 50.4582 5.94373 49.862 6.09593C49.2682 6.24738 48.6849 6.4404 48.104 6.63492C44.4001 7.87623 40.9 7.55625 37.6265 5.37876C36.3414 4.52424 35.0449 3.68532 33.7317 2.87238C33.3036 2.60734 32.8056 2.44846 32.3394 2.24059C32.344 2.1901 32.3478 2.13962 32.3524 2.08914C32.6367 2.08914 32.9242 2.06538 33.2055 2.09285C35.3453 2.30444 37.3573 2.94439 39.2461 3.91992C41.8185 5.24809 44.556 5.30823 47.3497 5.03428C47.9291 4.97711 48.5078 4.9051 49.0796 4.80116C49.2461 4.77072 49.3868 4.60665 49.5396 4.5042C49.4012 4.36834 49.2841 4.15081 49.1214 4.11072C48.2591 3.89988 47.3938 3.67047 46.514 3.56505C44.648 3.34084 42.7728 3.18642 40.9015 3.00898C40.6779 2.9882 40.4506 3.00601 40.2248 3.00601C40.2133 2.96221 40.2019 2.91767 40.1905 2.87386C40.6574 2.76399 41.1197 2.62961 41.5927 2.54869C43.1728 2.27994 44.7537 2.26731 46.3338 2.56948C46.4752 2.5962 46.6296 2.55685 46.7779 2.54795C46.7961 2.48781 46.8151 2.42693 46.8334 2.3668C46 1.97777 45.1673 1.58949 44.3339 1.20047C44.3339 1.15518 44.3339 1.1099 44.3347 1.06387C45.3552 1.06387 46.3779 1.02229 47.3961 1.07203C49.9989 1.19973 52.0398 2.51676 53.9598 4.07805C54.2663 4.3275 54.6107 4.55394 54.9742 4.71133C55.4502 4.91698 55.9566 4.69277 56.2037 4.23841C56.4425 3.80039 56.2471 3.45443 55.8889 3.21537C55.4783 2.94142 55.0137 2.7432 54.5856 2.49152C53.9089 2.09359 53.2359 1.68823 52.5774 1.26283C52.3995 1.14776 52.2786 0.948794 52.1866 0.692662C52.3919 0.740919 52.6017 0.777297 52.8025 0.838917C54.5027 1.36454 56.2402 1.27174 57.9633 1.0557C60.0498 0.795115 62.1219 0.423167 64.2039 0.121006C66.4128 -0.199715 68.5587 0.0824007 70.4141 1.29773C72.4922 2.65931 73.7727 4.58289 73.9834 7.09966C74.1697 9.32838 73.4891 11.2958 71.9151 12.8571C70.3479 14.4117 68.3929 15.3337 66.0646 15.1912C64.7955 15.1132 63.5834 14.7651 62.3972 14.3203C59.2339 13.1355 55.9635 12.6395 52.5767 12.8994C51.0749 13.0152 49.57 13.1065 48.0683 13.2179C47.6911 13.2461 47.3177 13.3107 46.9223 13.3018C49.2948 12.0411 51.9083 11.2906 54.2875 10.0582C54.0876 9.56224 53.7454 9.45459 53.407 9.5073C52.4208 9.66321 51.414 9.78125 50.4688 10.0752C48.4652 10.6989 46.4996 11.4361 44.5111 12.1065C42.2763 12.8593 39.9556 13.1748 37.6113 13.4057C35.6677 13.5972 33.8336 13.2453 32.0611 12.5267C31.4604 12.2832 30.9122 11.9194 30.3396 11.6106L30.4004 11.4925C31.1137 11.6558 31.8246 11.831 32.5409 11.9795C34.5248 12.3916 36.4714 12.2817 38.3603 11.5311C38.6135 11.4309 38.8712 11.3062 39.075 11.1347C39.2522 10.9862 39.3564 10.7553 39.4925 10.5608C39.2476 10.4999 38.9967 10.3715 38.7579 10.39C37.9512 10.4509 37.1459 10.6566 36.3452 10.6343C35.1719 10.6024 33.9712 10.5474 32.8405 10.2735C31.2589 9.88964 29.7358 9.28087 28.1801 8.79385C25.7019 8.01877 23.1683 7.68097 20.5601 7.87771C18.7671 8.01283 16.9703 8.11157 15.1735 8.18433C14.5203 8.21105 13.8625 8.11528 13.2063 8.07519C13.1972 8.03584 13.1888 7.99575 13.1797 7.95641C13.3401 7.87326 13.4945 7.77377 13.6633 7.70993C16.6273 6.59037 19.6697 5.72101 22.7691 5.03799C25.1468 4.51385 27.5246 4.4797 29.8932 5.10035C30.2103 5.1835 30.5198 5.29412 30.8331 5.39212C30.8787 5.33199 30.9243 5.27111 30.9699 5.21097L30.9692 5.2132ZM66.4281 13.8051C69.4552 13.837 72.7477 11.2965 72.7432 7.56219C72.7394 4.32528 70.0278 1.51228 66.3444 1.47442C62.9165 1.43953 59.9601 4.14264 59.9822 7.6884C60.0035 11.128 62.9713 13.7843 66.4281 13.8051Z" fill="white"/>
<path d="M36.9708 27.8849C37.3077 26.948 37.6065 26.0883 37.9259 25.236C38.3472 24.112 38.7897 22.9947 39.2125 21.8714C39.4649 21.2025 39.2946 20.9835 38.5411 20.9798C37.8103 20.9768 37.0796 20.9768 36.3488 20.9783C35.7314 20.979 35.4538 21.1468 35.2424 21.7044C34.5262 23.596 33.8083 25.4884 33.1232 27.3912C32.9871 27.7699 32.8145 27.9258 32.3993 27.9043C31.8032 27.8731 31.204 27.8961 30.5356 27.8961C30.585 27.7031 30.6071 27.5694 30.6542 27.4447C31.3196 25.6859 31.9887 23.9279 32.6571 22.1699C32.7073 22.037 32.7696 21.9063 32.8023 21.769C32.9438 21.1825 32.7788 20.9805 32.1621 20.9798C31.2526 20.9776 30.3432 20.988 29.4345 20.9731C29.1471 20.9687 29.0254 21.054 28.9235 21.3317C28.2042 23.2902 27.4134 25.2242 26.745 27.1982C26.5443 27.7899 26.2606 27.9146 25.7185 27.8879C25.1885 27.8619 24.6554 27.882 24.0273 27.882C24.2692 27.2457 24.4881 26.6793 24.6995 26.1098C25.5276 23.8886 26.364 21.6702 27.1701 19.4415C27.3358 18.9827 27.567 18.829 28.081 18.8327C31.9127 18.8602 35.7443 18.8476 39.576 18.8558C40.0611 18.8565 40.55 18.8817 41.0314 18.9404C41.9925 19.0577 42.4624 19.8602 42.1218 20.7452C41.242 23.0311 40.3706 25.3192 39.4817 27.6021C39.4353 27.7201 39.2642 27.8671 39.1456 27.8716C38.4513 27.8968 37.7556 27.8842 36.9708 27.8842V27.8849Z" fill="white"/>
<path d="M23.1038 25.6904C22.846 26.3934 22.5928 27.0839 22.3289 27.8033C21.2917 27.8033 20.2553 27.8033 19.2189 27.8033C17.5795 27.8033 15.9401 27.8062 14.3006 27.8018C13.1007 27.7988 12.4848 27.0223 12.8703 25.9361C13.5304 24.0764 14.214 22.2233 14.9234 20.3814C15.3097 19.3799 16.0861 18.855 17.2069 18.8639C19.3968 18.8817 21.5875 18.8743 23.776 18.933C24.8618 18.9619 25.3644 19.7481 24.9987 20.7311C24.5698 21.8855 24.1288 23.0363 23.6551 24.1736C23.5942 24.3191 23.3114 24.4535 23.1266 24.4602C22.2514 24.4906 21.3739 24.481 20.4979 24.4736C19.0706 24.4624 17.6434 24.4498 16.2161 24.4194C15.8397 24.4112 15.7135 24.6176 15.6222 25.2902C15.5698 25.6785 15.8716 25.6688 16.1378 25.6681C18.3939 25.6629 20.6492 25.6555 22.9053 25.6503C22.9517 25.6503 22.9981 25.6681 23.1038 25.6904ZM16.7278 22.3347C18.3794 22.3347 19.9945 22.3414 21.6088 22.3287C21.894 22.3265 22.2065 21.8209 22.1814 21.4497C22.1563 21.0659 21.9046 20.9724 21.545 20.9761C20.412 20.9879 19.2797 20.9805 18.1467 20.9798C17.2076 20.979 16.8487 21.3035 16.7271 22.3354L16.7278 22.3347Z" fill="white"/>
<path d="M0.771484 27.833C0.99276 27.2093 1.16613 26.6028 1.43455 26.0393C1.50831 25.8856 1.86798 25.7913 2.09762 25.7891C3.76897 25.7735 5.44033 25.7891 7.11244 25.7913C7.3877 25.7913 7.6835 25.8314 7.93367 25.7483C8.23783 25.6466 8.53591 25.4684 8.77239 25.2553C8.89025 25.1491 8.95336 24.8477 8.88189 24.7171C8.80737 24.5805 8.54275 24.4773 8.35873 24.4743C7.40215 24.4565 6.44405 24.4847 5.48671 24.478C4.98485 24.4743 4.48146 24.4476 3.98112 24.4015C2.98348 24.3087 2.49835 23.5908 2.81011 22.6613C3.0656 21.8981 3.34543 21.1424 3.6245 20.3873C4.0047 19.3569 4.77118 18.8617 5.88896 18.8609C8.45302 18.8587 11.0171 18.855 13.5811 18.8542C13.6245 18.8542 13.6678 18.8854 13.7728 18.9255C13.5386 19.5766 13.331 20.2336 13.0511 20.8602C12.9949 20.9872 12.6656 21.0533 12.4618 21.0548C10.5631 21.0696 8.66441 21.0689 6.7657 21.0614C6.37486 21.0599 5.99694 21.0867 5.78631 21.446C5.68441 21.6197 5.59545 21.8877 5.66464 22.0451C5.7308 22.1966 6.00606 22.3428 6.19388 22.3488C7.21509 22.3814 8.23783 22.3644 9.26056 22.3755C9.74646 22.3807 10.2346 22.3881 10.7175 22.4364C11.5463 22.5188 12.0626 23.2337 11.8049 23.9954C11.5068 24.8767 11.1722 25.7505 10.7905 26.6006C10.4323 27.3986 9.77535 27.873 8.85299 27.879C6.2243 27.8968 3.59484 27.8946 0.966146 27.8983C0.921283 27.8983 0.876419 27.8701 0.771484 27.8352L0.771484 27.833Z" fill="white"/>
<path d="M61.7605 27.8255C62.0069 27.1797 62.2297 26.5456 62.5019 25.9331C62.5468 25.8322 62.8076 25.7772 62.9688 25.7765C64.6561 25.775 66.3434 25.7891 68.0308 25.7965C68.2901 25.798 68.5691 25.8426 68.8041 25.7654C69.1273 25.6599 69.4466 25.4936 69.7074 25.2821C69.8321 25.1811 69.9059 24.8782 69.8405 24.7393C69.7774 24.605 69.5082 24.4988 69.325 24.4929C68.5144 24.4661 67.7023 24.4884 66.8917 24.4765C66.2758 24.4676 65.6583 24.4535 65.0447 24.406C63.9718 24.3229 63.479 23.6317 63.7877 22.6428C64.0136 21.9204 64.2698 21.207 64.5238 20.4928C64.9291 19.3517 65.5291 18.881 66.8521 18.8706C69.3987 18.8498 71.9461 18.8966 74.4926 18.9174C74.5208 18.9174 74.5481 18.9441 74.6736 19.0079C74.4462 19.6219 74.2364 20.2604 73.9626 20.8714C73.9086 20.9917 73.6083 21.0614 73.4212 21.0622C71.5065 21.0741 69.5919 21.0696 67.6772 21.0622C67.2407 21.0607 66.8795 21.1572 66.6818 21.5856C66.4651 22.057 66.64 22.3547 67.1936 22.3629C68.3129 22.3792 69.4329 22.3644 70.5522 22.3725C70.94 22.3755 71.3332 22.3763 71.7149 22.4319C72.5551 22.5552 73.0289 23.2434 72.7665 24.02C72.4684 24.9012 72.1293 25.7728 71.7476 26.6228C71.378 27.4447 70.6937 27.8842 69.7538 27.8872C67.1738 27.8953 64.5938 27.8961 62.0145 27.8976C61.9552 27.8976 61.8959 27.8649 61.7598 27.8248L61.7605 27.8255Z" fill="white"/>
<path d="M80.174 27.8812C80.6196 26.6859 81.0294 25.5872 81.475 24.3926C80.9427 24.4238 80.5283 24.4713 80.1139 24.4676C79.1573 24.4587 78.2 24.4349 77.2441 24.3956C76.9339 24.383 76.7727 24.4825 76.6723 24.7727C76.3568 25.6822 76.0237 26.5865 75.6777 27.4863C75.6245 27.6243 75.4717 27.8218 75.3576 27.827C74.6345 27.8582 73.9083 27.8426 73.1562 27.8426C73.1646 27.752 73.1524 27.6563 73.1829 27.5746C74.198 24.8522 75.2268 22.135 76.2267 19.4073C76.3819 18.9842 76.5811 18.7978 77.0617 18.8357C77.6396 18.881 78.2243 18.8461 78.914 18.8461C78.7969 19.2173 78.717 19.5269 78.6022 19.8238C78.3338 20.5165 78.0593 21.2069 77.7665 21.89C77.6205 22.2307 77.7156 22.351 78.0851 22.3488C79.3512 22.3414 80.6165 22.3414 81.8826 22.351C82.1966 22.3532 82.3251 22.2278 82.424 21.9375C82.738 21.011 83.0878 20.0956 83.4452 19.1839C83.4977 19.0495 83.6649 18.8676 83.7858 18.8624C84.4945 18.832 85.2055 18.8476 85.9986 18.8476C85.9317 19.1096 85.9013 19.3042 85.8321 19.4846C84.8367 22.0815 83.8102 24.6673 82.8582 27.2791C82.6688 27.7981 82.4377 27.9265 81.9328 27.8901C81.3876 27.8508 80.8378 27.8812 80.174 27.8812Z" fill="white"/>
<path d="M56.367 18.8453C56.2195 19.2306 56.1084 19.5202 55.9982 19.809C55.3602 21.4764 54.7139 23.1402 54.0888 24.8121C53.8082 25.5619 53.9588 25.7616 54.7648 25.7735C55.6081 25.7854 56.4521 25.7846 57.2954 25.7824C58.106 25.7802 58.471 25.5241 58.7463 24.7824C59.4276 22.9472 60.1173 21.1141 60.7834 19.2737C60.8989 18.9552 61.0487 18.8164 61.4069 18.8401C61.8913 18.8721 62.3802 18.8505 62.8669 18.8557C63.4143 18.8617 63.46 18.9188 63.2539 19.4341C62.9482 20.1965 62.6076 20.9471 62.3125 21.7133C61.7331 23.2167 61.1666 24.7252 60.6115 26.2368C60.2564 27.2049 59.6116 27.85 58.525 27.8627C56.4993 27.8864 54.4698 27.9042 52.4471 27.807C51.2685 27.7498 50.8336 26.9629 51.232 25.873C52.0297 23.694 52.8539 21.5247 53.6569 19.3472C53.7877 18.9931 53.9672 18.8075 54.3968 18.8349C55.0188 18.8758 55.6461 18.8453 56.367 18.8453Z" fill="white"/>
<path d="M30.5653 37.8199C31.5394 38.4079 32.302 39.1852 32.8974 40.1251C33.4746 41.0353 34.0776 41.9299 34.7171 42.9046C34.1163 42.9046 33.6016 42.9655 33.1149 42.8772C32.8906 42.8363 32.6929 42.5245 32.5332 42.3011C31.7652 41.2275 31.0314 40.131 30.2528 39.0656C29.6543 38.246 28.8103 37.8815 27.7708 37.9357C27.399 37.955 27.0226 37.9483 26.6515 37.9186C26.2257 37.8845 26.0348 38.0025 26.0447 38.4628C26.0721 39.8043 26.0424 41.1466 26.0691 42.4882C26.0767 42.869 25.9626 43.0019 25.5778 42.9663C25.2912 42.9403 24.9992 42.9611 24.6699 42.9611V31.7626C24.7916 31.7529 24.93 31.7299 25.0684 31.7321C26.9504 31.7596 28.8331 31.7885 30.7151 31.8212C33.0411 31.862 34.057 33.5451 33.7301 35.5333C33.5544 36.6008 32.264 37.5905 31.0383 37.658C30.8999 37.6655 30.7615 37.6796 30.6231 37.6907C30.6041 37.733 30.5851 37.7761 30.566 37.8184L30.5653 37.8199ZM28.3601 32.9244C28.3601 32.917 28.3601 32.9103 28.3601 32.9029C27.7442 32.9029 27.129 32.9088 26.5131 32.9007C26.1983 32.8962 26.0409 32.9935 26.0462 33.3365C26.063 34.3291 26.0592 35.3224 26.0462 36.315C26.0424 36.5986 26.1451 36.7189 26.4363 36.7137C27.7313 36.6892 29.0293 36.7137 30.3212 36.6372C31.5021 36.5674 32.3112 35.7389 32.3013 34.7463C32.2906 33.7366 31.4337 32.9808 30.2064 32.9296C29.592 32.9036 28.9753 32.9252 28.3594 32.9252L28.3601 32.9244Z" fill="white"/>
<path d="M75.6593 37.3499C75.6593 35.6305 75.6692 33.9104 75.651 32.1909C75.6472 31.8353 75.7559 31.7225 76.1194 31.7314C77.7565 31.7744 79.3959 31.7678 81.0316 31.8338C82.7158 31.9021 84.137 33.0462 84.6898 34.7715C85.3613 36.8666 85.3362 38.9387 84.2351 40.9061C83.5895 42.059 82.5075 42.6678 81.1912 42.7606C79.4644 42.8824 77.7292 42.8972 75.9977 42.9633C75.724 42.9737 75.6403 42.8764 75.6426 42.6032C75.6556 40.8526 75.6495 39.1013 75.6495 37.3507C75.6533 37.3507 75.6563 37.3507 75.6601 37.3507L75.6593 37.3499ZM77.0395 37.3202C77.0395 37.3202 77.0342 37.3202 77.0319 37.3202C77.0319 38.6306 77.041 39.9402 77.025 41.2498C77.0212 41.5713 77.1596 41.6767 77.4547 41.67C78.5086 41.6463 79.5632 41.6529 80.6149 41.5921C81.8802 41.5186 82.7204 40.8207 83.1774 39.7086C83.7348 38.3507 83.8101 36.926 83.4192 35.5333C83.0709 34.292 82.3349 33.2481 80.8878 33.0952C79.7168 32.9712 78.5245 33.0291 77.3413 33.0091C77.0273 33.0039 77.0387 33.2266 77.0395 33.4389C77.0402 34.7329 77.0395 36.027 77.0395 37.321V37.3202Z" fill="white"/>
<path d="M13.8201 42.9625C13.8201 42.7198 13.8201 42.5342 13.8201 42.3478C13.8156 38.9691 13.8156 35.5911 13.7988 32.2124C13.7973 31.8539 13.8795 31.7172 14.2809 31.721C16.7309 31.7425 19.1817 31.7551 21.6317 31.7321C22.3206 31.7254 22.0993 32.1694 22.1442 32.5027C22.1952 32.8828 22.053 33.0231 21.6325 33.018C19.6691 32.9942 17.705 33.0113 15.7409 32.9935C15.3835 32.9905 15.2482 33.0885 15.255 33.4448C15.2733 34.3446 15.2634 35.2444 15.2596 36.1442C15.2581 36.4241 15.3729 36.5221 15.674 36.5184C17.4913 36.4961 19.3087 36.4872 21.126 36.4932C21.3063 36.4932 21.6233 36.6008 21.6408 36.6973C21.6963 37.0136 21.6568 37.3499 21.6112 37.6721C21.6051 37.7144 21.3519 37.7449 21.2135 37.7449C19.4121 37.7501 17.61 37.7657 15.8093 37.7397C15.3409 37.733 15.2322 37.883 15.2474 38.3099C15.2809 39.2557 15.2816 40.2045 15.2581 41.1511C15.2474 41.5787 15.4155 41.6841 15.8299 41.6804C17.8419 41.6618 19.8547 41.67 21.8674 41.6685C22.4309 41.6685 22.418 41.6685 22.4316 42.3797C22.4392 42.768 22.3807 42.9766 21.8796 42.9722C19.3323 42.9462 16.7842 42.9618 14.2361 42.9625C14.1235 42.9625 14.011 42.9625 13.8201 42.9625Z" fill="white"/>
<path d="M64.8764 42.9314C64.8612 42.6945 64.8361 42.4778 64.8354 42.261C64.8232 38.929 64.8179 35.5978 64.7989 32.2659C64.7966 31.8665 64.9198 31.7173 65.357 31.7217C67.7751 31.744 70.1939 31.7366 72.6127 31.7425C73.1518 31.744 73.1328 31.7492 73.1533 32.5621C73.1632 32.9667 72.98 33.018 72.6249 33.015C70.6767 32.9987 68.7286 33.0105 66.7805 32.9957C66.4482 32.9935 66.3098 33.0885 66.3158 33.4196C66.3318 34.335 66.3311 35.2511 66.3341 36.1665C66.3349 36.4405 66.4413 36.5377 66.7493 36.5325C68.5826 36.5021 70.4167 36.4984 72.25 36.4843C72.5929 36.4813 72.7313 36.6187 72.7275 36.9713C72.7192 37.7531 72.7374 37.7531 71.9572 37.7531C70.2851 37.7531 68.613 37.7531 66.9409 37.7523C66.3159 37.7523 66.3143 37.7523 66.3158 38.3826C66.3174 39.2988 66.3311 40.2141 66.3212 41.1303C66.3174 41.5408 66.4474 41.6967 66.9135 41.6893C68.959 41.6581 71.0045 41.6715 73.0499 41.6708C73.145 41.6708 73.2408 41.6834 73.3754 41.6938V42.9329H64.8764V42.9314Z" fill="white"/>
<path d="M3.14063 37.2928C3.14215 38.3128 3.25925 39.3106 3.81358 40.2067C4.63557 41.5371 5.91456 42.016 7.42471 41.8512C8.81395 41.699 9.68005 40.8437 10.15 39.5816C10.2138 39.4101 10.3834 39.1302 10.4769 39.1399C10.8853 39.1844 11.2868 39.3084 11.6807 39.4317C11.7156 39.4428 11.7088 39.6655 11.6776 39.7791C11.1316 41.7472 9.37969 43.0279 7.26883 43.0702C5.69404 43.1014 4.27514 42.777 3.15583 41.618C2.37034 40.8044 2.02132 39.788 1.80157 38.7308C1.54531 37.4984 1.51033 36.2653 1.93235 35.0433C2.61975 33.0536 4.09493 32.0009 6.15408 31.6438C7.48554 31.4129 8.72727 31.6749 9.87699 32.3713C10.629 32.8272 11.0609 33.5206 11.4198 34.2741C11.578 34.6052 11.4845 34.8124 11.1005 34.8792C10.9895 34.8985 10.8838 34.9438 10.775 34.9735C10.3576 35.0893 10.0717 35.0618 9.88916 34.5644C9.03295 32.2325 5.60812 32.3498 4.27818 33.8651C3.50106 34.75 3.13302 35.8183 3.14063 37.292V37.2928Z" fill="white"/>
<path d="M41.168 27.8857C41.1832 27.755 41.1756 27.6585 41.2067 27.5761C42.104 25.1989 43.0173 22.8276 43.9001 20.446C44.2917 19.3895 45.0521 18.8736 46.1744 18.8632C48.023 18.8461 49.8715 18.8646 51.72 18.855C52.0888 18.8535 52.1382 19.0146 52.0318 19.2975C51.8592 19.7548 51.7132 20.2255 51.4858 20.6561C51.4014 20.815 51.1223 20.9634 50.9284 20.9671C49.6152 20.9931 48.3013 21.0035 46.9888 20.9671C46.3904 20.9508 46.0969 21.2255 45.9106 21.717C45.2072 23.5775 44.4803 25.4305 43.8081 27.3014C43.6507 27.7387 43.4461 27.9124 42.9838 27.8916C42.3899 27.8649 41.7938 27.8849 41.1687 27.8849L41.168 27.8857Z" fill="white"/>
<path d="M51.9639 42.9373H50.4796C50.4712 42.7688 50.456 42.6025 50.456 42.4369C50.4545 39.0441 50.4613 35.6513 50.4454 32.2585C50.4431 31.8494 50.5434 31.7143 50.9822 31.7195C53.2368 31.7462 55.4914 31.7529 57.7459 31.7395C58.1991 31.7365 58.3185 31.9214 58.2866 32.3037C58.2584 32.6475 58.3793 33.0358 57.7528 33.0202C55.9369 32.9756 54.1196 32.9771 52.3038 32.9801C52.1905 32.9801 51.9814 33.1479 51.9798 33.2414C51.957 34.3261 51.9654 35.4122 51.9654 36.5437H57.4174C57.4174 36.9126 57.4517 37.2415 57.3969 37.5556C57.3802 37.6521 57.1186 37.7701 56.9688 37.7723C55.4602 37.7879 53.9508 37.7991 52.4429 37.7701C52.0338 37.762 51.9532 37.8911 51.9578 38.2497C51.9753 39.6068 51.9646 40.964 51.9646 42.3211C51.9646 42.5082 51.9646 42.6953 51.9646 42.9366L51.9639 42.9373Z" fill="white"/>
<path d="M35.1477 31.7574C37.2836 31.7574 39.3405 31.7588 41.3974 31.7566C42.1753 31.7559 42.9547 31.767 43.731 31.7329C44.1242 31.7158 44.2838 31.8086 44.2732 32.2191C44.2489 33.1665 44.2519 33.0098 43.4527 33.0054C42.5927 33.0009 41.7327 33.0217 40.8742 32.9942C40.4948 32.9823 40.3655 33.084 40.367 33.4649C40.3807 36.3997 40.3731 39.3344 40.3762 42.2691C40.3762 42.9626 40.383 42.9626 39.6781 42.9618C39.4561 42.9618 39.234 42.9618 38.958 42.9618C38.958 42.7287 38.958 42.5594 38.958 42.3909C38.958 39.425 38.9512 36.4583 38.9694 33.4924C38.9717 33.0818 38.8288 32.9868 38.4387 32.9964C37.4988 33.0195 36.5567 32.986 35.6168 33.0105C35.2442 33.0202 35.118 32.8947 35.1439 32.551C35.1621 32.303 35.1477 32.0528 35.1477 31.7574Z" fill="white"/>
<path d="M46.1973 31.738C46.62 31.738 47.0086 31.7143 47.3903 31.7536C47.4968 31.7648 47.658 31.96 47.6641 32.0773C47.6914 32.5807 47.6686 33.087 47.6686 33.5918C47.6702 36.5437 47.674 39.4962 47.6747 42.448C47.6747 42.6017 47.6595 42.7554 47.6496 42.9343H46.1973V31.738Z" fill="white"/>
<path d="M62.096 42.941H60.6095C60.6026 42.7933 60.5897 42.6426 60.5897 42.4918C60.5851 39.082 60.592 35.6721 60.5684 32.2629C60.5654 31.8071 60.7212 31.7098 61.1501 31.7217C62.0884 31.7484 62.0907 31.7299 62.0915 32.617C62.0938 35.8844 62.0945 39.1525 62.096 42.4198C62.096 42.5757 62.096 42.7309 62.096 42.941Z" fill="white"/>
<path d="M66.3218 12.3901C64.1744 12.4614 61.4119 10.7427 61.418 7.57853C61.4233 4.88655 63.5152 2.91396 66.0169 2.83824C68.936 2.74989 71.221 4.79523 71.272 7.47756C71.3252 10.2735 69.2409 12.3418 66.3218 12.3901ZM68.7992 10.6996C68.844 10.7137 68.8896 10.7271 68.9345 10.7412C68.9779 10.7263 69.0341 10.7226 69.0623 10.6937C70.1542 9.56744 70.6074 8.24521 70.1914 6.73515C69.7793 5.23696 68.7284 4.27554 67.232 3.78036C66.7689 3.62742 66.4579 3.84569 66.3195 4.40101C67.7346 4.73287 68.7231 5.56808 69.2653 6.8918C69.812 8.22665 69.4546 9.47687 68.7992 10.7004V10.6996Z" fill="white"/>
</g>
<defs>
<clipPath id="clip0_214_1185">
<rect width="85.2284" height="43.0724" fill="white" transform="translate(0.771484)"/>
</clipPath>
</defs>
</svg>
